<svg version="1.2" xmlns="http://www.w3.org/2000/svg" viewBox="0 0 202 202" width="512" height="512">
	<title>sbs</title>
	<style>
		.s0 { fill: #e61f02 } 
		.s1 { fill: #fcbc1f } 
	</style>
	<g id="Background">
		<path id="Path 4" class="s0" d="m95 12c-10.3 0.5-15 1.2-20 2.9-3.6 1.3-9.7 4-13.5 5.9-3.9 2-9.5 5.4-12.5 7.6-3 2.2-7.5 6.1-10 8.6-2.5 2.5-6.4 7-8.6 10-2.2 3-5 7.3-6.2 9.5-1.1 2.2-3.4 7.4-5 11.5-1.6 4.1-3.5 10.7-4.2 14.5-0.8 4.5-1.1 12-0.8 21 0.4 11.7 0.9 15.3 3.1 21.8 1.5 4.2 4 10.3 5.6 13.4 1.6 3.2 5.3 9 8.2 12.9 3 3.9 8.1 9.5 11.4 12.3 3.3 2.8 6.6 5.1 7.3 5.1 0.6 0 1.3-1 1.5-2.2 0.1-1.3 0.9-2.4 1.7-2.5 0.8-0.1 5.4-0.4 10.3-0.7l8.7-0.6c0-36-0.4-44-1-44-0.5 0-4.4 1.1-8.5 2.5-4.4 1.5-9.8 2.5-13 2.5-3.9 0-5.4-0.4-5.2-1.3 0.2-0.7 2.9-1.5 6.3-1.9 3.2-0.4 8.6-1.6 11.9-2.8 3.3-1.1 9.1-4 12.9-6.3 3.8-2.3 8.9-6.5 11.3-9.2 2.4-2.8 5.6-7.5 7.1-10.5 1.4-3 3.3-8.8 4.2-12.9 0.8-4.1 2-7.6 2.5-7.8 0.5-0.2 1.6 2.7 2.3 6.4 0.8 3.8 2.8 9.5 4.4 12.8 1.9 3.7 5.9 8.7 10.2 13 3.9 3.8 8.7 7.7 10.6 8.6 1.9 1 6 2.6 9 3.8 3 1.1 8.6 2.4 12.4 2.8 4.2 0.5 7.1 1.3 7.3 2 0.2 0.9-1.2 1.3-4.7 1.3-2.7 0-8.3-0.9-12.3-2-3.9-1.1-7.8-2-8.4-2-1 0-1.3 5.1-1.3 22 0 16.5 0.3 22.2 1.3 22.7 0.6 0.5 5.5 0.8 10.7 0.8h9.5c0.4 4.3 1.1 5.5 1.8 5.5 0.6 0 3.9-2.3 7.1-5.2 3.3-2.9 7.8-7.8 10.1-10.8 2.4-3 5.9-8.4 7.8-12 2-3.6 5-10.8 6.7-16 2.5-7.6 3.3-11.8 3.7-21 0.3-6.6 0.1-14.6-0.6-18.8-0.6-3.9-2.1-10-3.2-13.5-1.2-3.4-3.5-8.9-5.2-12.2-1.6-3.3-4.8-8.7-7.2-12-2.3-3.3-7.1-8.7-10.6-11.9-3.5-3.2-9.1-7.7-12.4-9.9-3.3-2.3-8.5-5.2-11.5-6.5-3-1.3-8-3.2-11-4.2-3-1-7.3-2.1-9.5-2.5-2.2-0.3-5.1-0.8-6.5-0.9-1.4-0.1-8.6 0-16 0.4z"/>
		<path id="Path 5" class="s1" d="m98.6 89.3c-1.1 2.8-3.2 7-4.7 9.2-1.5 2.2-4.3 5.6-6.1 7.5-1.9 1.9-5.5 5-8.1 6.8l-4.7 3.2v50c-11.2 0-16 0.3-17.8 0.7l-3.2 0.8v15.5h-19v17c120.4 0 127.9-0.2 127.5-1.5-0.3-0.8-0.5-4.7-0.5-8.5v-7h-13l-0.5-16.5-21.5-0.5v-51c-6.6-4.1-10.7-7.6-13.5-10.4-2.7-2.9-6.8-8.6-9-12.9l-4-7.7z"/>
	</g>
</svg>